<svg width="80" height="26" viewBox="0 0 80 26" fill="none" xmlns="http://www.w3.org/2000/svg">
<path d="M32.9492 11.5568V5.50391H35.5071C37.4006 5.50391 38.7958 6.62849 38.7958 8.51375C38.7958 10.3991 37.4338 11.5237 35.5403 11.5237H32.9492V11.5568ZM37.2013 8.54688C37.2013 7.62076 36.6365 6.89312 35.5403 6.89312H34.5437V10.2006H35.5403C36.5701 10.2006 37.2013 9.43996 37.2013 8.54688Z" fill="#3C342D"/>
<path d="M39.4121 8.52786C39.4121 6.68381 40.8196 5.43262 42.6961 5.43262C44.5726 5.43262 45.9465 6.71679 45.9465 8.52786C45.9465 10.3389 44.539 11.6231 42.6961 11.6231C40.786 11.6231 39.4121 10.3389 39.4121 8.52786ZM44.3381 8.52786C44.3381 7.54002 43.7014 6.78265 42.6961 6.78265C41.6908 6.78265 41.0205 7.54002 41.0205 8.52786C41.0205 9.51569 41.6572 10.2731 42.6961 10.2731C43.6678 10.2731 44.3381 9.48271 44.3381 8.52786Z" fill="#3C342D"/>
<path d="M50.3522 11.5568L49.3066 9.53915H48.4972V11.5568H46.9121V5.50391H49.9812C51.3302 5.50391 52.1059 6.39689 52.1059 7.52148C52.1059 8.5799 51.4651 9.1422 50.8918 9.34067L52.1396 11.5568H50.3522ZM50.5208 7.52148C50.5208 7.12463 50.1835 6.89312 49.745 6.89312H48.4972V8.18306H49.745C50.1498 8.18306 50.5208 7.95155 50.5208 7.52148Z" fill="#3C342D"/>
<path d="M52.6855 8.52786C52.6855 6.68381 54.1078 5.43262 56.0041 5.43262C57.9003 5.43262 59.2887 6.71679 59.2887 8.52786C59.2887 10.3389 57.8666 11.6231 56.0041 11.6231C54.1078 11.6231 52.6855 10.3389 52.6855 8.52786ZM57.6972 8.52786C57.6972 7.54002 57.0538 6.78265 56.038 6.78265C55.0221 6.78265 54.3448 7.54002 54.3448 8.52786C54.3448 9.51569 54.9882 10.2731 56.038 10.2731C57.02 10.2731 57.6972 9.48271 57.6972 8.52786Z" fill="#3C342D"/>
<path d="M64.3161 11.5568V9.1422H61.7639V11.5568H60.1855V5.50391H61.7639V7.78611H64.3161V5.53693H65.8945V11.5568H64.3161Z" fill="#3C342D"/>
<path d="M66.8574 8.52786C66.8574 6.68381 68.2649 5.43262 70.1414 5.43262C72.0179 5.43262 73.3918 6.71679 73.3918 8.52786C73.3918 10.3389 71.9844 11.6231 70.1414 11.6231C68.2649 11.6231 66.8574 10.3389 66.8574 8.52786ZM71.7834 8.52786C71.7834 7.54002 71.1467 6.78265 70.1078 6.78265C69.1025 6.78265 68.4324 7.54002 68.4324 8.52786C68.4324 9.51569 69.0691 10.2731 70.1078 10.2731C71.1467 10.2731 71.7834 9.48271 71.7834 8.52786Z" fill="#3C342D"/>
<path d="M75.7152 11.5568L73.3906 5.50391H75.1761L76.6922 9.86994L78.2083 5.50391H79.9938L77.6692 11.5237H75.7152V11.5568Z" fill="#3C342D"/>
<path d="M32.9492 20.5666V14.5137H35.5071C37.4006 14.5137 38.7958 15.6444 38.7958 17.5402C38.7958 19.4359 37.4338 20.5666 35.5403 20.5666H32.9492ZM37.2013 17.5402C37.2013 16.609 36.6365 15.8772 35.5403 15.8772H34.5437V19.203H35.5403C36.5701 19.203 37.2013 18.4381 37.2013 17.5402Z" fill="#3C342D"/>
<path d="M39.7559 20.5666V14.5137H41.3379V20.5666H39.7559Z" fill="#3C342D"/>
<path d="M49.248 20.5666V14.5137H50.8301V20.5666H49.248Z" fill="#3C342D"/>
<path d="M64.5898 20.5656V14.5127H66.1719V20.5656H64.5898Z" fill="#3C342D"/>
<path d="M64.8645 18.9834L68.7852 18.9834L68.7852 20.5654L64.8645 20.5654L64.8645 18.9834Z" fill="#3C342D"/>
<path d="M55.2305 14.5125L55.2305 20.5654L53.6485 20.5654L53.6485 14.5125L55.2305 14.5125Z" fill="#3C342D"/>
<path d="M57.0224 16.0947L51.7949 16.0947L51.7949 14.5127L57.0224 14.5127L57.0224 16.0947Z" fill="#3C342D"/>
<path d="M61.2985 14.5125L63.623 20.5654L61.8375 20.5654L60.3215 16.1994L58.8054 20.5654L57.0199 20.5654L59.3444 14.5456L61.2985 14.5456L61.2985 14.5125Z" fill="#3C342D"/>
<path d="M58.8088 17.8135L61.6289 17.8135L61.6289 19.3955L58.8088 19.3955L58.8088 17.8135Z" fill="#3C342D"/>
<path d="M42.3027 17.541C42.3027 15.6303 43.7656 14.4443 45.594 14.4443C46.9571 14.4443 47.7549 15.1691 48.1871 15.8939L46.8906 16.5527C46.6578 16.1574 46.1925 15.795 45.594 15.795C44.5966 15.795 43.8985 16.5527 43.8985 17.541C43.8985 18.5293 44.5966 19.287 45.594 19.287C46.0262 19.287 46.4916 19.1224 46.7244 18.9247V18.4634H45.3613V17.1128H48.2869V19.5176C47.622 20.2423 46.7576 20.7036 45.594 20.7036C43.7987 20.6707 42.3027 19.4517 42.3027 17.541Z" fill="#3C342D"/>
<path d="M10.472 0H0V26H10.5391C19.4 26 25.1058 20.8793 25.1058 12.9835C25.0722 5.08773 19.3664 0 10.472 0ZM10.2035 20.7802H5.53806V5.58328H10.2706C15.7415 5.58328 19.5678 7.69763 19.5678 13.0165C19.5678 17.2783 16.0772 20.7802 10.2035 20.7802Z" fill="#3C342D"/>
<path d="M11.2562 9.90527H10.043V16.0958H11.2562C13.6488 16.0958 15.0641 14.6723 15.0641 12.9178C15.0304 10.766 13.4803 9.90527 11.2562 9.90527Z" fill="#3C342D"/>
</svg>
