<svg width="51" height="51" viewBox="0 0 51 51" fill="none" xmlns="http://www.w3.org/2000/svg">
<path d="M49.6304 22.1042C49.6288 22.1031 49.6276 22.1015 49.6264 22.1003L28.8204 1.37075C27.9335 0.486561 26.7544 0 25.5003 0C24.2461 0 23.067 0.486561 22.1798 1.37065L1.38454 22.0898C1.37757 22.0967 1.37019 22.1041 1.36362 22.1111C-0.457623 23.9361 -0.454435 26.8971 1.37259 28.7175C2.2072 29.5496 3.30919 30.0312 4.48798 30.0819C4.5362 30.0865 4.58452 30.0888 4.63313 30.0888H5.46196V45.3443C5.46196 48.3635 7.92754 50.8198 10.9578 50.8198H19.0978C19.9231 50.8198 20.5921 50.1529 20.5921 49.3309V37.3705C20.5921 35.9929 21.7171 34.8724 23.0997 34.8724H27.9008C29.2836 34.8724 30.4081 35.993 30.4081 37.3705V49.331C30.4081 50.153 31.077 50.8199 31.9024 50.8199H40.0424C43.073 50.8199 45.5382 48.3636 45.5382 45.3444V30.0889H46.3071C47.5609 30.0889 48.74 29.6023 49.6276 28.7179C51.4567 26.8948 51.4574 23.9283 49.6303 22.1041L49.6304 22.1042ZM47.5142 26.6126C47.3561 26.7711 47.168 26.8968 46.9608 26.9824C46.7536 27.068 46.5314 27.1118 46.3071 27.1113H44.0438C43.2184 27.1113 42.5495 27.7777 42.5495 28.6002V45.3444C42.5495 46.7216 41.4249 47.8421 40.0423 47.8421H33.3966V37.3705C33.3966 34.3512 30.9314 31.8946 27.9007 31.8946H23.0998C20.0692 31.8946 17.6036 34.3512 17.6036 37.3705V47.8421H10.958C9.57565 47.8421 8.45065 46.7215 8.45065 45.3444V28.6001C8.45065 27.7776 7.7817 27.1112 6.95635 27.1112H4.73195C4.70864 27.1096 4.68529 27.1085 4.66192 27.108C4.21672 27.1003 3.79922 26.9243 3.48641 26.6121C2.82095 25.9491 2.82095 24.8702 3.48641 24.2067C3.48671 24.2067 3.48671 24.2063 3.48711 24.2059L3.4883 24.2047L24.2935 3.476C24.4516 3.31749 24.6396 3.19182 24.8468 3.10629C25.0539 3.02075 25.2761 2.97705 25.5003 2.97773C25.956 2.97773 26.3844 3.1545 26.707 3.476L47.5075 24.2006L47.5173 24.2099C48.1793 24.8741 48.1781 25.9509 47.5142 26.6126Z" fill="white"/>
</svg>
