<svg width="47" height="61" viewBox="0 0 47 61" fill="none" xmlns="http://www.w3.org/2000/svg">
<path d="M23.5 0C10.6239 0 0.148438 10.4754 0.148438 23.3516C0.148438 27.4731 1.23738 31.5252 3.29744 35.0696C3.77993 35.8994 4.31289 36.6987 4.89333 37.4632L22.4854 61H24.5145L42.1067 37.4633C42.687 36.6988 43.22 35.8994 43.7026 35.0698C45.7626 31.5252 46.8516 27.4731 46.8516 23.3516C46.8516 10.4754 36.3761 0 23.5 0ZM23.5 31.0957C19.2299 31.0957 15.7559 27.6217 15.7559 23.3516C15.7559 19.0814 19.2299 15.6074 23.5 15.6074C27.7701 15.6074 31.2441 19.0814 31.2441 23.3516C31.2441 27.6217 27.7701 31.0957 23.5 31.0957Z" fill="#EC7300"/>
</svg>
