<svg width="12" height="18" viewBox="0 0 12 18" fill="none" xmlns="http://www.w3.org/2000/svg">
<path d="M0.176806 9.6587C-0.313664 10.5626 0.243216 10.9946 1.5138 11.7327C2.59395 12.3583 4.08616 12.5871 5.0447 12.6786L1.26736 16.0848C0.168005 17.0727 1.93786 18.6577 3.03641 17.6908L6.01044 15.0017C7.149 16.0286 8.24035 17.0127 8.98446 17.6945C10.0838 18.6652 11.8529 17.0937 10.7655 16.0886C10.6839 16.0158 6.73534 12.4648 6.97617 12.6824C7.94671 12.5908 9.41652 12.3486 10.4839 11.7365L10.4831 11.7357C11.7537 10.9939 12.3105 10.5626 11.8273 9.6587C11.5352 9.14563 10.7479 8.71657 9.69976 9.45842C9.69976 9.45842 8.28436 10.4748 6.00164 10.4748C3.71811 10.4748 2.30351 9.45842 2.30351 9.45842C1.25616 8.71282 0.465647 9.14563 0.176806 9.6587Z" fill="#3C342D"/>
<path d="M6.00123 9.10773C8.78403 9.10773 11.0564 7.06896 11.0564 4.55912C11.0564 2.03878 8.78403 0 6.00123 0C3.21764 0 0.945312 2.03878 0.945312 4.55912C0.945312 7.06896 3.21764 9.10773 6.00123 9.10773ZM6.00123 2.30956C7.36863 2.30956 8.48399 3.31545 8.48399 4.55912C8.48399 5.79228 7.36863 6.79817 6.00123 6.79817C4.63384 6.79817 3.51848 5.79228 3.51848 4.55912C3.51768 3.3147 4.63304 2.30956 6.00123 2.30956Z" fill="#3C342D"/>
</svg>
