<svg width="42" height="53" viewBox="0 0 42 53" fill="none" xmlns="http://www.w3.org/2000/svg">
<path fill-rule="evenodd" clip-rule="evenodd" d="M24.9565 40.6087C34.1071 38.7725 41 30.6912 41 21C41 9.9543 32.0457 1 21 1C9.9543 1 1 9.9543 1 21C1 30.6912 7.89287 38.7725 17.0435 40.6087L21 44L24.9565 40.6087Z" fill="#EC7300"/>
<path d="M24.9565 40.6087L24.8581 40.1185L24.7302 40.1441L24.6311 40.2291L24.9565 40.6087ZM17.0435 40.6087L17.3689 40.2291L17.2698 40.1441L17.1419 40.1185L17.0435 40.6087ZM21 44L20.6746 44.3796L21 44.6585L21.3254 44.3796L21 44ZM40.5 21C40.5 30.4483 33.7798 38.3282 24.8581 40.1185L25.0549 41.0989C34.4345 39.2167 41.5 30.934 41.5 21H40.5ZM21 1.5C31.7696 1.5 40.5 10.2304 40.5 21H41.5C41.5 9.67816 32.3218 0.5 21 0.5V1.5ZM1.5 21C1.5 10.2304 10.2304 1.5 21 1.5V0.5C9.67816 0.5 0.5 9.67816 0.5 21H1.5ZM17.1419 40.1185C8.22023 38.3282 1.5 30.4483 1.5 21H0.5C0.5 30.934 7.56551 39.2167 16.9451 41.0989L17.1419 40.1185ZM16.7181 40.9883L20.6746 44.3796L21.3254 43.6204L17.3689 40.2291L16.7181 40.9883ZM21.3254 44.3796L25.2819 40.9883L24.6311 40.2291L20.6746 43.6204L21.3254 44.3796Z" fill="#EC7300"/>
<circle cx="21" cy="50" r="2.5" fill="#EC7300" stroke="white"/>
<g clip-path="url(#clip0_1051_1328)">
<path d="M30.703 17.3624H24.9406V14.3426C24.9393 14.2607 24.9075 14.1827 24.8519 14.1253C24.7963 14.0679 24.7215 14.0357 24.6436 14.0357C24.5656 14.0357 24.4908 14.0679 24.4352 14.1253C24.3796 14.1827 24.3478 14.2607 24.3465 14.3426V17.6743C24.3465 17.757 24.3778 17.8363 24.4335 17.8948C24.4892 17.9533 24.5648 17.9861 24.6436 17.9862H30.4059V25.0139H24.6436C24.5648 25.0139 24.4892 25.0468 24.4335 25.1053C24.3778 25.1637 24.3465 25.2431 24.3465 25.3258V31.3763H17.6535V25.3257C17.6535 25.243 17.6222 25.1637 17.5665 25.1052C17.5108 25.0467 17.4352 25.0139 17.3564 25.0138H14.9854C14.9074 25.0152 14.8331 25.0486 14.7784 25.107C14.7237 25.1653 14.6931 25.2439 14.6931 25.3257C14.6931 25.4076 14.7237 25.4862 14.7784 25.5445C14.8331 25.6028 14.9074 25.6363 14.9854 25.6376H17.0594V31.6881C17.0594 31.7708 17.0907 31.8502 17.1464 31.9086C17.2021 31.9671 17.2777 32 17.3564 32H24.6436C24.7224 32 24.7979 31.9671 24.8536 31.9086C24.9093 31.8502 24.9406 31.7708 24.9406 31.6881V25.6376H30.703C30.7818 25.6376 30.8573 25.6047 30.913 25.5463C30.9687 25.4878 31 25.4084 31 25.3257V17.6743C31 17.5916 30.9687 17.5122 30.913 17.4537C30.8573 17.3953 30.7817 17.3624 30.703 17.3624ZM24.6436 11H17.3564C17.2777 11 17.2021 11.0329 17.1464 11.0914C17.0907 11.1498 17.0594 11.2292 17.0594 11.3119V17.3624H11.297C11.2183 17.3624 11.1427 17.3953 11.087 17.4537C11.0313 17.5122 11 17.5916 11 17.6743V25.3258C11 25.4085 11.0313 25.4878 11.087 25.5463C11.1427 25.6048 11.2183 25.6376 11.297 25.6377H13.9952C14.0732 25.6363 14.1475 25.6029 14.2022 25.5445C14.2568 25.4862 14.2875 25.4076 14.2875 25.3258C14.2875 25.2439 14.2568 25.1654 14.2022 25.107C14.1475 25.0487 14.0732 25.0152 13.9952 25.0139H11.5941V17.9862H17.3564C17.4352 17.9861 17.5108 17.9533 17.5665 17.8948C17.6222 17.8363 17.6535 17.757 17.6535 17.6743V11.6238H24.3466V13.303C24.3478 13.3848 24.3797 13.4629 24.4352 13.5203C24.4908 13.5777 24.5656 13.6099 24.6436 13.6099C24.7215 13.6099 24.7964 13.5777 24.8519 13.5203C24.9075 13.4629 24.9394 13.3848 24.9406 13.303V11.3119C24.9406 11.2292 24.9093 11.1498 24.8536 11.0914C24.7979 11.0329 24.7223 11 24.6436 11Z" fill="white"/>
</g>
<defs>
<clipPath id="clip0_1051_1328">
<rect width="20" height="21" fill="white" transform="translate(11 11)"/>
</clipPath>
</defs>
</svg>
