<svg width="30" height="40" viewBox="0 0 30 40" fill="none" xmlns="http://www.w3.org/2000/svg">
<path d="M15.001 0.3125C7.03935 0.3125 0.563477 6.78969 0.563477 14.75C0.563477 22.3704 13.4286 38.5115 13.9759 39.1953C14.2253 39.5077 14.6007 39.6875 15.001 39.6875C15.3987 39.6875 15.7754 39.5077 16.0234 39.1966C16.5734 38.5128 29.4398 22.3704 29.4398 14.75C29.4398 6.791 22.9613 0.3125 15.001 0.3125ZM15.001 36.2461C10.9454 30.9778 3.18848 19.8412 3.18848 14.75C3.18848 8.23738 8.48704 2.9375 15.001 2.9375C21.5136 2.9375 26.8148 8.23738 26.8148 14.75C26.8148 19.8412 19.0553 30.9791 15.001 36.2461Z" fill="#EC7300"/>
<path d="M15.001 6.54688C11.2 6.54688 8.11035 9.63781 8.11035 13.4375C8.11035 17.2372 11.2 20.3281 15.001 20.3281C18.802 20.3281 21.8929 17.2372 21.8929 13.4375C21.8929 9.63781 18.8007 6.54688 15.001 6.54688ZM15.001 17.7031C12.6477 17.7031 10.7354 15.7895 10.7354 13.4375C10.7354 11.0855 12.6477 9.17188 15.001 9.17188C17.353 9.17188 19.2679 11.0855 19.2679 13.4375C19.2679 15.7895 17.353 17.7031 15.001 17.7031Z" fill="#EC7300"/>
</svg>
