<svg width="47" height="47" viewBox="0 0 47 47" fill="none" xmlns="http://www.w3.org/2000/svg">
<g clip-path="url(#clip0_566_23399)">
<path d="M25.4847 5.22229H4.07353C3.20816 5.22229 2.50684 5.92362 2.50684 6.78899V45.4335C2.50684 46.2987 3.20816 47.0001 4.07353 47.0001H25.4846C26.3499 47.0001 27.0513 46.2988 27.0513 45.4335V6.78899C27.0513 5.92362 26.35 5.22229 25.4847 5.22229ZM23.918 43.8668H5.64023V8.35559H23.918V43.8668Z" fill="#EC7300"/>
<path d="M16.294 26.1111H19.4273V31.3333H16.294V26.1111ZM10.0274 26.1111H13.1607V31.3333H10.0274V26.1111ZM17.8607 33.9445H11.594C10.7287 33.9445 10.0273 34.6458 10.0273 35.5112V45.4334H13.1606V37.0779H16.2939V45.4334H19.4272V35.5111C19.4274 34.6458 18.726 33.9445 17.8607 33.9445ZM16.294 18.2778H19.4273V23.5H16.294V18.2778ZM10.0274 18.2778H13.1607V23.5H10.0274V18.2778ZM16.294 10.4445H19.4273V15.6667H16.294V10.4445ZM10.0274 10.4445H13.1607V15.6667H10.0274V10.4445ZM20.2629 0H9.29619C8.43091 0 7.72949 0.701328 7.72949 1.5667V6.78893H10.8628V3.1333H18.6961V6.78884H21.8294V1.5667C21.8296 0.701328 21.1282 0 20.2629 0ZM42.9274 16.1889H25.694V19.3222H41.3607V43.8667H25.694V47H42.9273C43.7926 47 44.494 46.2987 44.494 45.4333V17.7555C44.494 16.8903 43.7926 16.1889 42.9274 16.1889Z" fill="#EC7300"/>
<path d="M35.9288 37.0778H39.0621V42.3001H35.9288V37.0778ZM29.6621 37.0778H32.7954V42.3001H29.6621V37.0778ZM35.9288 29.2445H39.0621V34.4668H35.9288V29.2445ZM29.6621 29.2445H32.7954V34.4668H29.6621V29.2445ZM35.9288 21.4111H39.0621V26.6334H35.9288V21.4111ZM29.6621 21.4111H32.7954V26.6334H29.6621V21.4111Z" fill="#EC7300"/>
</g>
<defs>
<clipPath id="clip0_566_23399">
<rect width="47" height="47" fill="white"/>
</clipPath>
</defs>
</svg>
