<svg width="47" height="47" viewBox="0 0 47 47" fill="none" xmlns="http://www.w3.org/2000/svg">
<path d="M44.9583 3.06519C44.1119 3.06519 43.4256 3.75137 43.4256 4.59783V9.19566H33.9664C33.5039 7.8915 32.469 6.85658 31.1648 6.39402V3.06519H35.7626C36.609 3.06519 37.2953 2.37901 37.2953 1.53255C37.2953 0.68609 36.609 0 35.7626 0H17.3713C16.5249 0 15.8387 0.686182 15.8387 1.53264C15.8387 2.3791 16.5248 3.06528 17.3713 3.06528H21.9691V6.39411C20.665 6.85668 19.6301 7.89159 19.1675 9.19575H8.17564C5.6404 9.19575 3.57781 11.2583 3.57781 13.7936V22.9892C3.57781 23.8356 4.2639 24.5219 5.11045 24.5219H11.2409C12.0873 24.5219 12.7736 23.8357 12.7736 22.9892V18.3914H19.1676C19.8002 20.1753 21.5038 21.4566 23.5018 21.4566H29.6322C31.6303 21.4566 33.3338 20.1752 33.9664 18.3914H43.4257V22.9892C43.4257 23.8356 44.1119 24.5219 44.9584 24.5219C45.8048 24.5219 46.491 23.8357 46.491 22.9892V4.59792C46.4908 3.75146 45.8047 3.06519 44.9583 3.06519ZM18.9039 15.3261H11.2409C10.3946 15.3261 9.70828 16.0123 9.70828 16.8588V21.4566H6.643V13.7936C6.643 12.9485 7.33056 12.2609 8.17564 12.2609H18.9039V15.3261ZM25.0343 3.06519H28.0995V6.13038H25.0343V3.06519ZM31.1648 16.8587C31.1648 17.7038 30.4772 18.3913 29.6322 18.3913H23.5017C22.6566 18.3913 21.969 17.7038 21.969 16.8587V10.7283C21.969 9.88322 22.6565 9.19566 23.5017 9.19566H29.6322C30.4772 9.19566 31.1648 9.88322 31.1648 10.7283V16.8587ZM43.4256 15.3261H34.23V12.2609H43.4256V15.3261ZM14.1701 34.5627L9.37405 28.5473C8.76112 27.7784 7.59053 27.7781 6.97733 28.5473L2.18131 34.5627C-1.79001 39.5434 1.75133 47 8.17564 47C14.5985 47 18.1424 39.5449 14.1701 34.5627ZM8.17564 43.9348C4.32339 43.9348 2.19452 39.4629 4.57785 36.4737L8.17564 31.9613L11.7734 36.4737C14.1548 39.4604 12.0302 43.9348 8.17564 43.9348Z" fill="#EC7300"/>
</svg>
