<svg width="36" height="44" viewBox="0 0 36 44" fill="none" xmlns="http://www.w3.org/2000/svg">
<path d="M33.6307 17.8413C30.6261 11.3619 24.9312 7.27528 24.6902 7.1045L22.9595 5.87775C22.7058 8.20713 22.2037 9.8741 21.6742 10.8229C18.5965 8.35221 16.4987 4.9159 16.1079 2.10118L15.8162 0L14.0855 1.22666C13.7852 1.43955 6.68764 6.53251 2.94313 14.6078C1.68106 17.3295 0.868851 20.3657 0.594418 23.3884C0.302107 26.6078 0.645557 29.6569 1.58772 32.206C2.8326 35.5743 5.22583 38.6078 8.32634 40.7476C10.7116 42.3938 13.4278 43.4591 16.1564 43.8415C16.755 43.9454 17.6296 44.0001 18.3964 44.0001C26.1593 44.0001 32.716 39.0154 34.7602 31.8857C36.0657 27.4322 35.6434 22.182 33.6307 17.8413ZM17.9982 41.4215C16.0454 41.4215 14.4567 39.8329 14.4567 37.88C14.4567 36.1596 15.58 34.4941 16.5223 33.3999C17.0503 32.7867 17.5846 32.2774 17.9982 31.9131C18.4119 32.2775 18.9462 32.7868 19.4741 33.3999C20.4164 34.4941 21.5397 36.1597 21.5397 37.88C21.5397 39.8329 19.951 41.4215 17.9982 41.4215ZM24.0591 38.7198C24.097 38.4451 24.1182 38.165 24.1182 37.8801C24.1182 33.1463 18.2172 28.8148 17.9982 28.6561C17.7792 28.8148 11.8782 33.1463 11.8782 37.8801C11.8782 38.165 11.8994 38.4451 11.9373 38.7198C10.6325 37.2726 9.83697 35.3577 9.83697 33.2604C9.83697 27.2234 15.8459 21.7402 17.9992 19.9695C20.154 21.7374 26.1594 27.2083 26.1594 33.2604C26.1594 35.3577 25.364 37.2726 24.0591 38.7198ZM32.2838 31.1677C31.4655 34.022 29.7573 36.4689 27.5028 38.256C28.2909 36.7627 28.7379 35.0629 28.7379 33.2603C28.7379 24.6213 18.4059 17.0333 17.9982 16.7379C17.9982 16.7379 14.731 19.1178 12.2992 21.92C8.95445 25.7743 7.25851 29.5897 7.25851 33.2603C7.25851 34.65 7.52392 35.9789 8.00652 37.1989C6.24235 35.5731 4.8376 33.5612 4.00623 31.312C2.39856 26.9624 2.89947 20.8313 5.28247 15.6925C7.72057 10.4344 11.8237 6.4555 14.0422 4.5587C14.9216 7.25258 16.7656 9.87573 19.5459 12.3814C20.0326 12.8201 22.1982 14.6127 22.1982 14.6127C23.4794 13.1869 24.3065 11.4693 24.6924 10.4232C26.4857 11.9987 29.4771 15.0132 31.2914 18.926C33.0227 22.6594 33.4036 27.3473 32.2838 31.1677Z" fill="#EC7300"/>
</svg>
