<svg width="44" height="51" viewBox="0 0 44 51" fill="none" xmlns="http://www.w3.org/2000/svg">
<path d="M35.6966 11.8999C35.247 8.77519 33.7533 5.90176 31.4302 3.72778C28.8613 1.32391 25.5124 0 22.0002 0C18.488 0 15.1391 1.32391 12.5701 3.72778C10.247 5.90176 8.75339 8.77519 8.30372 11.8999C3.29996 14.0953 0 19.1036 0 24.6476C0 32.3155 6.20843 38.5536 13.8395 38.5536C16.1732 38.554 18.4689 37.9609 20.513 36.8297V51H23.487V36.8297C25.5311 37.9609 27.8268 38.554 30.1605 38.5536C37.7917 38.5536 44 32.3154 44 24.6476C44.0003 19.1036 40.7003 14.0952 35.6966 11.8999ZM30.1607 35.5653C27.7345 35.5653 25.3894 34.7514 23.4872 33.2622V24.123L30.1568 20.5993L28.7727 17.9544L23.4872 20.7468V14.8647H20.5132V27.3702L15.2277 24.5777L13.8436 27.2226L20.5132 30.7463V33.2622C18.6061 34.7554 16.2574 35.566 13.8397 35.5653C7.8484 35.5653 2.9742 30.6676 2.9742 24.6476C2.9742 20.0446 5.87148 15.9119 10.1837 14.3639L11.0933 14.0374L11.1661 13.0695C11.3721 10.3334 12.5905 7.79234 14.5971 5.91461C16.6136 4.02751 19.2428 2.98828 22.0002 2.98828C24.7576 2.98828 27.3868 4.02751 29.4034 5.91451C31.4099 7.79224 32.6284 10.3332 32.8344 13.0694L32.9072 14.0373L33.8168 14.3638C38.129 15.9118 41.0263 20.0445 41.0263 24.6475C41.0263 30.6676 36.152 35.5653 30.1607 35.5653Z" fill="#EC7300"/>
</svg>
