<svg width="44" height="44" viewBox="0 0 44 44" fill="none" xmlns="http://www.w3.org/2000/svg">
<path d="M22.8748 18.685C22.0976 18.685 21.4668 19.315 21.4668 20.0929V23.9063C21.4668 24.6842 22.0968 25.3143 22.8748 25.3143C23.6519 25.3143 24.2827 24.6842 24.2827 23.9063V20.0929C24.2827 19.315 23.652 18.685 22.8748 18.685ZM22.8748 27.0744C22.0976 27.0744 21.4668 27.7044 21.4668 28.4823V32.2957C21.4668 33.0736 22.0968 33.7036 22.8748 33.7036C23.6519 33.7036 24.2827 33.0736 24.2827 32.2957V28.4823C24.2827 27.7043 23.652 27.0744 22.8748 27.0744ZM22.8748 35.4638C22.0976 35.4638 21.4668 36.0938 21.4668 36.8717V40.6851C21.4668 41.463 22.0968 42.093 22.8748 42.093C23.6519 42.093 24.2827 41.463 24.2827 40.6851V36.8717C24.2827 36.0937 23.652 35.4638 22.8748 35.4638ZM22.8748 10.2956C22.0976 10.2956 21.4668 10.9256 21.4668 11.7036V15.5169C21.4668 16.2949 22.0968 16.9249 22.8748 16.9249C23.6519 16.9249 24.2827 16.2949 24.2827 15.5169V11.7036C24.2827 10.9256 23.652 10.2956 22.8748 10.2956ZM22.8748 1.90625C22.0976 1.90625 21.4668 2.53626 21.4668 3.31416V7.12756C21.4668 7.90546 22.0968 8.53547 22.8748 8.53547C23.6519 8.53547 24.2827 7.90546 24.2827 7.12756V3.31416C24.2827 2.53626 23.652 1.90625 22.8748 1.90625ZM44 9.33546C44 8.55756 43.3693 7.92755 42.5913 7.92755H35.0737L33.9968 3.01295C33.8297 2.25335 33.0778 1.77666 32.3196 1.93908C31.56 2.10614 31.0796 2.85655 31.2458 3.61623L32.5659 9.63753C32.7078 10.2828 33.2806 10.7434 33.9418 10.7434H42.592C43.3693 10.7434 44 10.1134 44 9.33546ZM42.5913 14.4774H35.3772C35.1667 14.4773 34.9588 14.5244 34.7689 14.6152C34.579 14.706 34.4118 14.8382 34.2797 15.0021C34.1481 15.1663 34.0548 15.3579 34.0068 15.5629C33.9587 15.7678 33.9572 15.9809 34.0021 16.1865L39.44 40.987C39.5849 41.6444 40.1668 42.0936 40.8143 42.0936C40.9142 42.0936 41.0156 42.083 41.1171 42.0608C41.8767 41.8937 42.3571 41.1433 42.1909 40.3837L37.1276 17.2932H42.5913C43.3692 17.2932 44 16.6632 44 15.8853C44 15.1074 43.3693 14.4774 42.5913 14.4774ZM7.1683 29.0841H1.40791C0.630695 29.0841 0 29.714 0 30.4919C0 31.2698 0.630695 31.8998 1.40791 31.8998H5.41879L3.55867 40.3837C3.39238 41.1433 3.87286 41.8938 4.63255 42.0609C4.73395 42.0822 4.83545 42.0937 4.9353 42.0937C5.58207 42.0937 6.16473 41.6453 6.30884 40.9863L8.54348 30.7932C8.58831 30.5875 8.58658 30.3744 8.53841 30.1695C8.49025 29.9646 8.39688 29.773 8.26513 29.6088C8.13314 29.4449 7.96609 29.3127 7.77628 29.2219C7.58647 29.1311 7.37872 29.084 7.1683 29.0841ZM13.4299 1.93908C12.6703 1.77743 11.919 2.25327 11.7527 3.01295L8.08586 19.733H1.40791C0.630695 19.733 0 20.3637 0 21.1409C0 21.9181 0.630695 22.548 1.40791 22.548H9.21843C9.87963 22.548 10.4524 22.0882 10.5935 21.4422L14.5037 3.61615C14.67 2.85655 14.1895 2.10614 13.4299 1.93908Z" fill="#EC7300"/>
</svg>
