<svg width="43" height="43" viewBox="0 0 43 43" fill="none" xmlns="http://www.w3.org/2000/svg">
<g clip-path="url(#clip0_566_23449)">
<path d="M40.3125 9.91016H39.0779V5.375C39.0779 2.41035 36.6676 0 33.7029 0H9.29707C6.33242 0 3.92207 2.41035 3.92207 5.375V9.90176H2.6875C1.20938 9.90176 0 11.1111 0 12.5893V17.2504C0 18.7285 1.20938 19.9379 2.6875 19.9379H3.92207V34.6939C3.92207 36.1721 5.13144 37.3814 6.60957 37.3814H6.9791V40.3125C6.9791 41.7906 8.18848 43 9.6666 43H12.9504C14.4285 43 15.6379 41.7906 15.6379 40.3125V37.3898H27.3537V40.3125C27.3537 41.7906 28.5631 43 30.0412 43H33.325C34.8031 43 36.0125 41.7906 36.0125 40.3125V37.3898H36.3904C37.8686 37.3898 39.0779 36.1805 39.0779 34.7023V19.9463H40.3125C41.7906 19.9463 43 18.7369 43 17.2588V12.5977C43 11.1111 41.7906 9.91016 40.3125 9.91016ZM9.29707 1.78887H33.7113C35.685 1.78887 37.2975 3.39297 37.2975 5.375V7.56699H5.71094V5.375C5.71094 3.40137 7.32344 1.78887 9.29707 1.78887ZM37.2891 26.623H33.115L28.118 24.4227C26.8162 23.8516 25.9764 22.5666 25.9764 21.1473V17.4352C25.9764 16.9396 25.5648 16.5281 25.0693 16.5281C24.5738 16.5281 24.1707 16.9312 24.1707 17.4268C24.1707 17.4688 24.1707 17.5107 24.1791 17.5527V21.1557C24.1791 23.2889 25.4389 25.2205 27.3873 26.0771L28.6555 26.6314H22.3902V9.36426H37.2891V26.623ZM14.3445 26.623L15.6127 26.0688C17.5611 25.2121 18.8209 23.2805 18.8209 21.1473V17.5527C18.8293 17.5107 18.8293 17.4688 18.8293 17.4268C18.8293 16.9312 18.4262 16.5281 17.9307 16.5281C17.4352 16.5281 17.0236 16.9396 17.0236 17.4352V21.1473C17.0236 22.5666 16.1838 23.8516 14.882 24.4227L9.89336 26.623H5.71094V9.36426H20.6098V26.623H14.3445ZM2.6875 18.1574C2.19199 18.1574 1.78887 17.7543 1.78887 17.2588V12.5977C1.78887 12.1021 2.19199 11.699 2.6875 11.699H3.92207V18.1574H2.6875ZM13.849 40.3125C13.849 40.808 13.4459 41.2111 12.9504 41.2111H9.6666C9.17109 41.2111 8.76797 40.808 8.76797 40.3125V37.3898H13.8406L13.849 40.3125ZM34.2236 40.3125C34.2236 40.808 33.8205 41.2111 33.325 41.2111H30.0412C29.5457 41.2111 29.1426 40.808 29.1426 40.3125V37.3898H34.2152L34.2236 40.3125ZM36.3904 35.601H6.60957C6.11406 35.601 5.71094 35.1979 5.71094 34.7023V28.4119H37.2891V34.7023C37.2891 35.1979 36.8859 35.601 36.3904 35.601ZM41.2111 17.2588C41.2111 17.7543 40.808 18.1574 40.3125 18.1574H39.0779V11.699H40.3125C40.808 11.699 41.2111 12.1021 41.2111 12.5977V17.2588Z" fill="#EC7300"/>
<path d="M10.4221 29.7053C9.05312 29.7053 7.92773 30.8223 7.92773 32.1997C7.92773 33.577 9.04473 34.694 10.4221 34.694C11.7994 34.694 12.9164 33.577 12.9164 32.1997C12.9164 30.8223 11.7994 29.7053 10.4221 29.7053ZM10.4221 32.8883C10.0357 32.8883 9.725 32.5776 9.725 32.1913C9.725 31.8049 10.0357 31.4942 10.4221 31.4942C10.8084 31.4942 11.1191 31.8049 11.1191 32.1913C11.1191 32.5776 10.8084 32.8883 10.4221 32.8883ZM32.5771 29.7053C31.1998 29.7053 30.0828 30.8223 30.0828 32.1997C30.0828 33.577 31.1998 34.694 32.5771 34.694C33.9545 34.694 35.0715 33.577 35.0715 32.1997C35.0715 30.8223 33.9461 29.7053 32.5771 29.7053ZM32.5771 32.8883C32.1908 32.8883 31.8801 32.5776 31.8801 32.1913C31.8801 31.8049 32.1908 31.4942 32.5771 31.4942C32.9635 31.4942 33.2742 31.8049 33.2742 32.1913C33.2742 32.5776 32.9635 32.8883 32.5771 32.8883ZM26.2867 31.2926H16.7125C16.217 31.2926 15.8139 31.6957 15.8139 32.1913C15.8139 32.6868 16.2254 33.0899 16.7125 33.0899H26.2867C26.7822 33.0899 27.1854 32.6868 27.1854 32.1913C27.1854 31.6957 26.7822 31.2926 26.2867 31.2926Z" fill="#EC7300"/>
</g>
<defs>
<clipPath id="clip0_566_23449">
<rect width="43" height="43" fill="white"/>
</clipPath>
</defs>
</svg>
