<svg width="43" height="43" viewBox="0 0 43 43" fill="none" xmlns="http://www.w3.org/2000/svg">
<path d="M38.5514 12.1221L26.823 0.393635C26.6982 0.268842 26.5501 0.16985 26.387 0.10231C26.224 0.0347695 26.0493 4.59885e-06 25.8728 0L8.35751 0C5.98546 0 4.05566 1.92979 4.05566 4.30185V38.6982C4.05566 41.0702 5.98546 43 8.35751 43H34.643C37.0151 43 38.9449 41.0702 38.9449 38.6982V13.0722C38.9449 12.8957 38.9102 12.721 38.8427 12.558C38.7751 12.3949 38.6762 12.2468 38.5514 12.1221ZM27.2165 4.5879L34.3571 11.7285H27.2165V4.5879ZM34.6431 40.3125H8.35751C7.46736 40.3125 6.74316 39.5883 6.74316 38.6982V4.30185C6.74316 3.4117 7.46736 2.6875 8.35751 2.6875H24.529V13.0722C24.529 13.8143 25.1307 14.4159 25.8728 14.4159H36.2575V38.6982C36.2575 39.5883 35.5333 40.3125 34.6431 40.3125ZM31.1081 22.3252C31.1081 23.0673 30.5065 23.669 29.7644 23.669H13.2362C12.4942 23.669 11.8925 23.0673 11.8925 22.3252C11.8925 21.5831 12.4942 20.9815 13.2362 20.9815H29.7644C30.5065 20.9815 31.1081 21.5831 31.1081 22.3252ZM31.1081 31.4962C31.1081 32.2383 30.5065 32.84 29.7644 32.84H13.2362C12.4942 32.84 11.8925 32.2383 11.8925 31.4962C11.8925 30.7542 12.4942 30.1525 13.2362 30.1525H29.7644C30.5065 30.1525 31.1081 30.7542 31.1081 31.4962Z" fill="#EC7300"/>
</svg>
