<svg width="43" height="43" viewBox="0 0 43 43" fill="none" xmlns="http://www.w3.org/2000/svg">
<path fill-rule="evenodd" clip-rule="evenodd" d="M42.5435 0.463208C43.154 1.07891 43.1519 2.07499 42.5387 2.688L2.67227 42.5417C2.05906 43.1547 1.06702 43.1525 0.456484 42.5368C-0.15405 41.9211 -0.151879 40.925 0.461332 40.312L40.3277 0.45834C40.9409 -0.154676 41.933 -0.152496 42.5435 0.463208Z" fill="white"/>
<path fill-rule="evenodd" clip-rule="evenodd" d="M33.9472 38.6248C36.9469 38.6248 39.3787 36.193 39.3787 33.1933C39.3787 30.1935 36.9469 27.7617 33.9472 27.7617C30.9474 27.7617 28.5156 30.1935 28.5156 33.1933C28.5156 36.193 30.9474 38.6248 33.9472 38.6248ZM33.9472 42.2459C38.9468 42.2459 42.9998 38.1929 42.9998 33.1933C42.9998 28.1936 38.9468 24.1406 33.9472 24.1406C28.9475 24.1406 24.8945 28.1936 24.8945 33.1933C24.8945 38.1929 28.9475 42.2459 33.9472 42.2459Z" fill="white"/>
<path fill-rule="evenodd" clip-rule="evenodd" d="M10.1833 14.4842C13.058 14.4842 15.3885 12.0524 15.3885 9.05263C15.3885 6.05285 13.058 3.62105 10.1833 3.62105C7.30846 3.62105 4.97799 6.05285 4.97799 9.05263C4.97799 12.0524 7.30846 14.4842 10.1833 14.4842ZM10.1833 18.1053C14.9746 18.1053 18.8587 14.0523 18.8587 9.05263C18.8587 4.053 14.9746 0 10.1833 0C5.39194 0 1.50781 4.053 1.50781 9.05263C1.50781 14.0523 5.39194 18.1053 10.1833 18.1053Z" fill="white"/>
</svg>
