<svg width="42" height="54" viewBox="0 0 42 54" fill="none" xmlns="http://www.w3.org/2000/svg">
<path fill-rule="evenodd" clip-rule="evenodd" d="M26.5904 40.2082C34.9154 37.7894 41 30.1053 41 21C41 9.9543 32.0457 1 21 1C9.9543 1 1 9.9543 1 21C1 30.1053 7.08459 37.7894 15.4096 40.2082L21 45L26.5904 40.2082Z" fill="#EC7300"/>
<path d="M26.5904 40.2082L26.4509 39.7281L26.3471 39.7582L26.265 39.8286L26.5904 40.2082ZM15.4096 40.2082L15.735 39.8286L15.6529 39.7582L15.5491 39.7281L15.4096 40.2082ZM21 45L20.6746 45.3796L21 45.6585L21.3254 45.3796L21 45ZM40.5 21C40.5 29.8769 34.5681 37.3696 26.4509 39.7281L26.7299 40.6883C35.2627 38.2092 41.5 30.3336 41.5 21H40.5ZM21 1.5C31.7696 1.5 40.5 10.2304 40.5 21H41.5C41.5 9.67816 32.3218 0.5 21 0.5V1.5ZM1.5 21C1.5 10.2304 10.2304 1.5 21 1.5V0.5C9.67816 0.5 0.5 9.67816 0.5 21H1.5ZM15.5491 39.7281C7.43191 37.3696 1.5 29.8769 1.5 21H0.5C0.5 30.3336 6.73728 38.2092 15.2701 40.6883L15.5491 39.7281ZM15.0842 40.5878L20.6746 45.3796L21.3254 44.6204L15.735 39.8286L15.0842 40.5878ZM21.3254 45.3796L26.9158 40.5878L26.265 39.8286L20.6746 44.6204L21.3254 45.3796Z" fill="#EC7300"/>
<circle cx="21" cy="51" r="2.5" fill="#EC7300" stroke="white"/>
<path d="M33.7251 17.8215L21.1442 13.0266C21.0511 12.9911 20.9489 12.9911 20.8558 13.0266L8.27485 17.8215C8.19425 17.8522 8.12467 17.908 8.07551 17.9811C8.02636 18.0543 8 18.1414 8 18.2307C8 18.3199 8.02636 18.407 8.07551 18.4802C8.12467 18.5534 8.19425 18.6091 8.27485 18.6399L13.4514 20.6129V27.3846C13.4514 29.1015 17.2488 30 21 30C24.7512 30 28.5486 29.1015 28.5486 27.3846V20.6129L30.6454 19.8135V22.6649C30.3656 22.7677 30.1298 22.97 29.9796 23.2361C29.8295 23.5022 29.7746 23.8149 29.8248 24.1189C29.875 24.423 30.027 24.6988 30.2539 24.8976C30.4808 25.0964 30.768 25.2055 31.0648 25.2055C31.3616 25.2055 31.6488 25.0964 31.8757 24.8976C32.1026 24.6988 32.2546 24.423 32.3048 24.1189C32.355 23.8149 32.3001 23.5022 32.15 23.2361C31.9998 22.97 31.764 22.7677 31.4842 22.6649V19.5384C31.4843 19.5238 31.4836 19.5093 31.4821 19.4948L33.7251 18.6399C33.8058 18.6091 33.8753 18.5534 33.9245 18.4802C33.9736 18.407 34 18.3199 34 18.2307C34 18.1414 33.9736 18.0543 33.9245 17.9811C33.8753 17.908 33.8058 17.8522 33.7251 17.8215ZM25.9228 28.5076C24.6134 28.9075 22.8651 29.1282 21 29.1282C19.1349 29.1282 17.3866 28.9075 16.0772 28.5076C14.6665 28.076 14.2901 27.5987 14.2901 27.3846C14.2901 27.1705 14.6665 26.6931 16.0772 26.2616C17.3861 25.8617 19.1349 25.641 21 25.641C22.8651 25.641 24.6139 25.8617 25.9228 26.2616C27.3335 26.6931 27.7099 27.1705 27.7099 27.3846C27.7099 27.5987 27.3335 28.076 25.9228 28.5076ZM27.7099 26.1167C26.3847 25.228 23.6808 24.7692 21 24.7692C18.3192 24.7692 15.6153 25.228 14.2901 26.1167V19.5384C14.2901 19.3242 14.6665 18.8469 16.0772 18.4154C17.3866 18.0154 19.1349 17.7948 21 17.7948C22.8651 17.7948 24.6134 18.0154 25.9228 18.4154C27.3335 18.8469 27.7099 19.3242 27.7099 19.5384V26.1167ZM31.4842 23.8974C31.4842 23.9836 31.4596 24.0679 31.4135 24.1396C31.3674 24.2112 31.3019 24.2671 31.2253 24.3001C31.1486 24.3331 31.0643 24.3417 30.983 24.3249C30.9016 24.3081 30.8269 24.2666 30.7683 24.2056C30.7096 24.1447 30.6697 24.067 30.6535 23.9824C30.6373 23.8979 30.6456 23.8102 30.6773 23.7306C30.7091 23.6509 30.7628 23.5828 30.8318 23.5349C30.9008 23.4871 30.9818 23.4615 31.0648 23.4615C31.176 23.4616 31.2825 23.5076 31.3612 23.5893C31.4398 23.671 31.484 23.7818 31.4842 23.8974ZM28.5486 19.6844V19.5384C28.5486 17.8215 24.7512 16.923 21 16.923C17.2488 16.923 13.4514 17.8215 13.4514 19.5384V19.6844L9.63727 18.2307L21 13.9L32.3627 18.2307L28.5486 19.6844Z" fill="white"/>
</svg>
