<svg width="48" height="48" viewBox="0 0 48 48" fill="none" xmlns="http://www.w3.org/2000/svg">
<path fill-rule="evenodd" clip-rule="evenodd" d="M24 44.878C35.5306 44.878 44.878 35.5306 44.878 24C44.878 12.4694 35.5306 3.12195 24 3.12195C12.4694 3.12195 3.12195 12.4694 3.12195 24C3.12195 35.5306 12.4694 44.878 24 44.878ZM24 48C37.2548 48 48 37.2548 48 24C48 10.7452 37.2548 0 24 0C10.7452 0 0 10.7452 0 24C0 37.2548 10.7452 48 24 48Z" fill="white"/>
<path fill-rule="evenodd" clip-rule="evenodd" d="M24.3399 5.23535C25.2503 5.23535 25.9884 6.00261 25.9884 6.94907V22.7534H35.8793C36.7897 22.7534 37.5278 23.5206 37.5278 24.4671C37.5278 25.4135 36.7897 26.1808 35.8793 26.1808H24.3399C23.4295 26.1808 22.6914 25.4135 22.6914 24.4671V6.94907C22.6914 6.00261 23.4295 5.23535 24.3399 5.23535Z" fill="white"/>
</svg>
