<svg width="20" height="15" viewBox="0 0 20 15" fill="none" xmlns="http://www.w3.org/2000/svg">
<path d="M19.2205 1.20826C18.4985 0.350064 17.1656 0 14.6201 0H5.37974C2.77594 0 1.42045 0.372645 0.701226 1.28632C0 2.17716 0 3.48974 0 5.30639V8.7689C0 12.2883 0.832 14.0752 5.37974 14.0752H14.6201C16.8276 14.0752 18.0508 13.7663 18.8422 13.009C19.6537 12.2323 20 10.9643 20 8.7689V5.30639C20 3.39058 19.9457 2.07026 19.2205 1.20826ZM12.8401 7.51568L8.64406 9.70865C8.54574 9.7601 8.4358 9.78531 8.32487 9.78184C8.21395 9.77837 8.1058 9.74634 8.01088 9.68885C7.91596 9.63135 7.83748 9.55033 7.78303 9.45363C7.72858 9.35693 7.7 9.24782 7.70006 9.13684V4.76497C7.70007 4.65416 7.72862 4.54522 7.78295 4.44865C7.83729 4.35207 7.91558 4.27112 8.01028 4.2136C8.10499 4.15607 8.21292 4.1239 8.32366 4.1202C8.43441 4.1165 8.54424 4.14138 8.64258 4.19245L12.8386 6.37129C12.9433 6.42567 13.0311 6.50772 13.0924 6.60853C13.1538 6.70934 13.1863 6.82503 13.1864 6.94303C13.1866 7.06103 13.1544 7.17682 13.0933 7.27778C13.0322 7.37875 12.9446 7.46103 12.8401 7.51568Z" fill="#3C342D"/>
</svg>
