<svg width="130" height="46" viewBox="0 0 130 46" fill="none" xmlns="http://www.w3.org/2000/svg">
<path d="M47.8592 38.3809V39.1937H41.9532V45.9481H40.4707V38.3809H47.8592Z" fill="#3C342D"/>
<path d="M59.0957 45.9481V38.3809H63.4199C64.4239 38.3809 65.2446 38.488 65.882 38.7023C66.5235 38.9142 66.9984 39.2011 67.3067 39.5632C67.615 39.9253 67.7691 40.3293 67.7691 40.7752C67.7691 41.221 67.615 41.6262 67.3067 41.9908C67.0026 42.3554 66.5318 42.646 65.8945 42.8628C65.2571 43.0771 64.4406 43.1843 63.4449 43.1843H60.3455V42.3714H63.3949C64.0823 42.3714 64.6343 42.3012 65.0509 42.1608C65.4675 42.0204 65.7695 41.8307 65.9569 41.5917C66.1486 41.3503 66.2444 41.0782 66.2444 40.7752C66.2444 40.4722 66.1486 40.2012 65.9569 39.9623C65.7695 39.7233 65.4654 39.5361 65.0446 39.4007C64.6239 39.2627 64.0656 39.1937 63.3699 39.1937H60.6454V45.9481H59.0957Z" fill="#3C342D"/>
<path d="M80.7115 45.9481V45.1024H81.4768C81.7717 45.1024 82.0188 45.0672 82.2181 44.9967C82.4213 44.9262 82.5887 44.8351 82.7203 44.7233C82.8558 44.6115 82.9674 44.4949 83.055 44.3734L83.2464 44.0964L79.0137 38.3809H80.6159L83.9877 43.0174L87.0725 38.3809H88.6508L84.4181 44.6358C84.2507 44.8691 84.0594 45.0854 83.8442 45.2847C83.633 45.4839 83.344 45.6443 82.9773 45.7658C82.6146 45.8873 82.1224 45.9481 81.5007 45.9481H80.7115Z" fill="#3C342D"/>
<path d="M108.572 38.3809V45.9481H107.164V39.1937H101.306V45.9481H99.8984V38.3809H108.572Z" fill="#3C342D"/>
<path d="M128.805 38.3809V45.9481H127.345V39.1937H121.27V45.9481H119.811V38.3809H128.805Z" fill="#3C342D"/>
<path fill-rule="evenodd" clip-rule="evenodd" d="M59.086 34.3353C62.4237 34.3353 65.408 33.7958 68.0389 32.7232V30.0253C65.5076 31.496 62.6871 32.2132 59.6546 32.2132C51.9064 32.2132 44.8134 27.1202 44.6721 18.1646C44.8134 9.20894 51.9064 4.11589 59.6546 4.11589C62.6871 4.11589 65.5076 4.83313 68.0389 6.30379V3.60921C65.4112 2.53335 62.4269 1.99707 59.086 1.99707C53.4194 1.99707 48.8899 3.47103 45.488 6.46501C42.0411 9.45899 40.3418 13.3281 40.3418 18.1678C40.3418 23.0076 42.0411 26.8734 45.4912 29.8674C48.8899 32.8614 53.4226 34.3353 59.086 34.3353Z" fill="#3C342D"/>
<path fill-rule="evenodd" clip-rule="evenodd" d="M120.706 34.3353C124.044 34.3353 127.028 33.7958 129.659 32.7232V30.0253C127.128 31.496 124.307 32.2132 121.275 32.2132C113.527 32.2132 106.434 27.1202 106.292 18.1646C106.434 9.20894 113.527 4.11589 121.275 4.11589C124.307 4.11589 127.128 4.83313 129.659 6.30379V3.60921C127.032 2.53335 124.047 1.99707 120.706 1.99707C115.04 1.99707 110.51 3.47103 107.108 6.46501C103.658 9.45899 101.959 13.3281 101.959 18.1646C101.959 23.001 103.658 26.8701 107.108 29.8641C110.507 32.8614 115.04 34.3353 120.706 34.3353Z" fill="#3C342D"/>
<path d="M73.3379 2.61768V5.57217H84.4077V34.1433H86.3673H86.9134H89.146V5.57217H100.216V2.61768H86.9134H86.3673H73.3379Z" fill="#3C342D"/>
<path fill-rule="evenodd" clip-rule="evenodd" d="M4 0C1.79086 0 0 1.79086 0 4V42C0 44.2091 1.79086 46 4 46H10.7302C8.55437 44.8887 7.05623 42.5856 7.05623 39.9308C7.05623 38.995 7.79684 38.2365 8.7105 38.2365C9.62415 38.2365 10.3648 38.995 10.3648 39.9308C10.3648 41.7993 11.849 43.3194 13.6733 43.3194H17.809V29.5109C17.809 28.5752 18.5496 27.8167 19.4632 27.8167H28.5617C29.4753 27.8167 30.216 28.5752 30.216 29.5109V43.3194H33.3646C33.5089 42.9063 33.5873 42.4623 33.5873 42V17.5878L25.0922 8.90438C24.7924 8.64347 24.4117 8.50061 24.0183 8.50146C23.6249 8.50232 23.2447 8.64683 22.946 8.90904L10.3648 21.8796V31.4594C10.3648 32.3951 9.62415 33.1537 8.7105 33.1537C7.79684 33.1537 7.05623 32.3951 7.05623 31.4594V25.2905L5.74837 26.6389C5.5948 26.7976 5.41199 26.9236 5.21055 27.0094C5.0091 27.0953 4.79302 27.1393 4.57483 27.139C4.13785 27.1396 3.71852 26.9625 3.4089 26.6467C2.76076 25.9872 2.75729 24.9144 3.4013 24.2506L20.6379 6.48071C20.66 6.45783 20.6829 6.43564 20.7062 6.41412C22.5884 4.68333 25.4325 4.67714 27.3218 6.39981C27.3453 6.42124 27.3681 6.44335 27.3904 6.46605L33.5873 12.8004V4C33.5873 1.79086 31.7964 0 29.5873 0H4ZM27.2165 46C27.0219 45.7222 26.9074 45.3816 26.9074 45.0136V31.2052H21.1175V45.0136C21.1175 45.3816 21.003 45.7222 20.8084 46H27.2165Z" fill="url(#paint0_linear_733_328)"/>
<defs>
<linearGradient id="paint0_linear_733_328" x1="2.39243e-07" y1="3.70968" x2="34.129" y2="48.2258" gradientUnits="userSpaceOnUse">
<stop stop-color="#EC7300"/>
<stop offset="1" stop-color="#FFDDAB"/>
</linearGradient>
</defs>
</svg>
